<?xml version="1.0" encoding="UTF-8" standalone="no"?>
<!DOCTYPE svg PUBLIC "-//W3C//DTD SVG 1.1//EN" "http://www.w3.org/Graphics/SVG/1.1/DTD/svg11.dtd">
<svg xmlns="http://www.w3.org/2000/svg" version="1.1" viewBox="0.00 0.00 180.00 180.00">
<g stroke-width="2.00" fill="none" stroke-linecap="butt">
<path stroke="#838b8e" vector-effect="non-scaling-stroke" d="
  M 82.60 175.81
  Q 90.13 176.62 96.97 176.01
  A 2.69 2.67 7.6 0 0 99.25 174.28
  Q 101.40 168.60 98.66 165.80
  C 95.88 162.95 89.28 162.55 88.01 158.53
  A 1.02 1.00 -34.7 0 1 88.19 157.58
  C 90.43 154.85 93.14 153.93 97.87 151.51
  Q 99.43 150.71 99.16 148.77
  A 1.31 1.27 15.1 0 0 98.64 147.90
  C 96.75 146.52 94.36 145.18 93.94 143.93
  Q 93.59 142.86 94.40 142.09
  A 0.21 0.21 0.0 0 1 94.75 142.29
  C 93.98 145.26 99.06 146.41 100.34 147.53
  Q 103.03 149.91 100.31 152.06
  Q 97.59 154.21 93.93 155.86
  Q 92.72 156.41 92.14 157.47
  A 1.92 1.92 0.0 0 0 92.87 160.06
  C 97.11 162.49 106.28 162.12 105.50 170.08
  A 2.56 2.55 -77.6 0 0 107.20 172.75
  C 114.57 175.30 128.99 167.34 135.32 163.18"
/>
<path stroke="#a6d4a9" vector-effect="non-scaling-stroke" d="
  M 135.32 163.18
  Q 145.65 157.10 154.42 147.15
  C 197.30 98.53 173.66 21.82 110.51 5.77
  Q 104.26 4.18 97.78 3.92"
/>
<path stroke="#86b4db" vector-effect="non-scaling-stroke" d="
  M 97.78 3.92
  Q 94.21 3.22 90.50 3.24
  Q 69.60 3.37 51.90 12.07
  C 26.69 24.45 8.83 48.30 4.47 76.16
  C -2.92 123.48 28.30 166.37 74.93 175.12
  Q 79.25 175.93 82.60 175.81"
/>
<path stroke="#2d8984" vector-effect="non-scaling-stroke" d="
  M 97.78 3.92
  L 104.65 5.72
  A 1.19 1.08 -21.3 0 1 104.86 5.80
  Q 112.92 9.63 115.90 11.97
  C 130.31 23.29 136.42 40.83 131.46 58.42
  Q 128.91 67.46 123.48 74.00
  Q 114.12 85.25 100.14 88.80
  C 94.92 90.12 87.75 90.02 81.59 90.84"
/>
<path stroke="#388d7f" vector-effect="non-scaling-stroke" d="
  M 81.59 90.84
  Q 77.98 91.38 76.12 92.10
  Q 52.08 101.41 47.21 126.71
  Q 46.52 130.26 46.91 135.53
  Q 48.20 152.94 60.60 164.63
  Q 60.91 164.92 61.86 165.24"
/>
<path stroke="#0a406a" vector-effect="non-scaling-stroke" d="
  M 61.86 165.24
  C 62.67 167.38 68.64 170.37 70.74 171.24
  Q 76.47 173.65 82.60 175.81"
/>
<path stroke="#838b8e" vector-effect="non-scaling-stroke" d="
  M 106.03 148.08
  L 107.04 150.73
  A 0.53 0.53 0.0 0 0 107.72 151.03
  C 110.28 150.08 112.89 151.83 115.76 152.80
  A 3.29 3.24 -11.4 0 1 117.11 153.68
  C 118.31 154.99 119.40 157.58 121.51 156.84"
/>
<path stroke="#838b8e" vector-effect="non-scaling-stroke" d="
  M 122.50 157.52
  Q 123.67 159.81 124.53 162.00
  Q 124.82 162.72 125.27 162.62
  Q 125.67 162.52 126.12 161.94"
/>
<path stroke="#838b8e" vector-effect="non-scaling-stroke" d="
  M 77.98 153.16
  Q 78.92 154.46 81.11 154.42
  A 1.48 1.47 25.0 0 0 82.00 154.10
  Q 87.48 149.61 90.85 143.74"
/>
<path stroke="#a0d192" vector-effect="non-scaling-stroke" d="
  M 109.97 104.44
  L 108.83 106.81
  A 0.55 0.55 0.0 0 1 107.95 106.96
  L 106.21 105.22
  A 0.50 0.50 0.0 0 0 105.45 105.28
  Q 103.80 107.57 103.41 110.40
  Q 103.28 111.36 102.69 112.03
  A 0.47 0.47 0.0 0 0 103.13 112.80
  L 104.78 112.46
  A 1.84 1.83 -40.6 0 1 105.72 112.53
  Q 107.96 113.35 108.87 113.10
  Q 115.98 111.19 123.28 110.79"
/>
<path stroke="#a0d192" vector-effect="non-scaling-stroke" d="
  M 114.55 130.46
  Q 113.70 132.38 114.14 134.29
  A 1.77 1.77 0.0 0 0 115.84 135.65
  L 119.47 135.70"
/>
<path stroke="#94be32" vector-effect="non-scaling-stroke" d="
  M 110.76 122.09
  C 105.66 120.89 103.58 117.82 100.98 113.71
  A 0.56 0.56 0.0 0 0 100.18 113.56
  Q 95.38 117.05 89.25 119.08
  C 85.81 120.23 82.75 122.67 80.23 124.66
  A 2.15 2.14 22.8 0 1 79.09 125.12
  L 72.99 125.63"
/>
<path stroke="#b1d8a3" vector-effect="non-scaling-stroke" d="
  M 72.99 125.63
  C 71.11 124.60 70.49 122.38 68.15 122.75
  Q 66.05 123.08 66.01 121.96
  A 1.20 1.10 -6.3 0 0 64.61 120.94
  Q 60.71 121.60 57.61 123.58
  A 0.93 0.91 80.9 0 0 57.24 124.10
  L 56.49 126.99
  A 0.57 0.57 0.0 0 1 55.89 127.42
  C 55.27 127.37 54.75 127.04 54.13 127.24
  Q 52.67 127.71 51.85 128.63
  A 0.83 0.82 32.3 0 0 52.15 129.94
  L 55.25 131.24"
/>
<path stroke="#aec76b" vector-effect="non-scaling-stroke" d="
  M 55.25 131.24
  Q 59.05 131.73 62.31 133.39
  A 2.11 2.08 58.8 0 0 63.22 133.62
  L 69.75 133.73"
/>
<path stroke="#94be32" vector-effect="non-scaling-stroke" d="
  M 69.75 133.73
  Q 73.35 136.50 75.96 140.30
  Q 78.37 143.81 79.48 145.16
  Q 81.32 147.38 83.21 149.86"
/>
<path stroke="#b1d8a3" vector-effect="non-scaling-stroke" d="
  M 83.21 149.86
  L 77.98 153.16"
/>
<path stroke="#356432" vector-effect="non-scaling-stroke" d="
  M 77.98 153.16
  Q 77.57 151.37 76.01 151.37
  A 0.94 0.92 15.6 0 0 75.22 151.80
  C 71.70 157.44 67.55 161.07 61.86 165.24"
/>
<path stroke="#2a6038" vector-effect="non-scaling-stroke" d="
  M 135.32 163.18
  L 126.12 161.94"
/>
<path stroke="#a6d4a9" vector-effect="non-scaling-stroke" d="
  M 126.12 161.94
  Q 124.94 159.25 122.50 157.52"
/>
<path stroke="#2a6038" vector-effect="non-scaling-stroke" d="
  M 122.50 157.52
  L 121.51 156.84"
/>
<path stroke="#a6d4a9" vector-effect="non-scaling-stroke" d="
  M 121.51 156.84
  L 118.70 153.51
  A 6.61 6.59 79.6 0 0 115.81 151.51
  L 106.03 148.08"
/>
<path stroke="#2a6038" vector-effect="non-scaling-stroke" d="
  M 106.03 148.08
  L 101.22 142.92"
/>
<path stroke="#89ba37" vector-effect="non-scaling-stroke" d="
  M 101.22 142.92
  C 103.54 140.36 108.82 135.50 108.91 132.26
  Q 109.05 127.05 110.76 122.09"
/>
<path stroke="#57ad4d" vector-effect="non-scaling-stroke" d="
  M 110.76 122.09
  Q 109.81 127.56 110.04 132.98
  Q 110.08 133.88 109.00 135.86
  A 0.28 0.27 12.9 0 0 109.26 136.27
  L 119.47 135.70"
/>
<path stroke="#95cd97" vector-effect="non-scaling-stroke" d="
  M 119.47 135.70
  L 126.23 135.11
  A 1.79 1.77 54.8 0 1 127.13 135.27
  Q 130.20 136.69 132.07 136.34
  Q 137.46 135.33 143.31 136.82
  C 144.48 137.12 145.09 136.57 145.91 135.93
  A 0.79 0.79 0.0 0 1 146.66 135.80
  C 151.12 137.27 153.26 136.44 157.35 135.09
  A 0.80 0.80 0.0 0 0 157.74 133.85
  Q 154.98 130.16 152.12 130.52
  A 1.11 1.08 -25.3 0 1 151.22 130.21
  L 150.46 129.45
  A 0.70 0.69 57.0 0 0 149.72 129.29
  L 146.56 130.49
  A 0.24 0.24 0.0 0 1 146.27 130.15
  Q 147.18 128.50 146.98 127.49
  A 1.13 1.13 0.0 0 0 145.12 126.88
  Q 142.19 129.51 138.02 129.95"
/>
<path stroke="#57ad4d" vector-effect="non-scaling-stroke" d="
  M 138.02 129.95
  Q 137.65 129.61 137.13 129.45"
/>
<path stroke="#95cd97" vector-effect="non-scaling-stroke" d="
  M 137.13 129.45
  C 135.30 127.64 132.55 127.49 131.20 127.14
  A 2.72 2.69 -15.4 0 1 129.97 126.45
  L 128.43 124.96
  A 1.19 1.19 0.0 0 0 127.19 124.70
  L 121.54 126.84
  A 1.61 1.60 87.2 0 0 120.55 127.94
  L 119.66 131.38
  A 0.73 0.73 0.0 0 1 118.32 131.56
  Q 117.04 129.30 114.55 130.46"
/>
<path stroke="#57ad4d" vector-effect="non-scaling-stroke" d="
  M 114.55 130.46
  C 108.52 125.82 116.72 121.52 119.37 118.65
  Q 121.64 116.20 121.13 112.92
  A 0.68 0.67 74.7 0 1 121.54 112.19
  Q 122.71 111.70 123.28 110.79"
/>
<path stroke="#95cd97" vector-effect="non-scaling-stroke" d="
  M 123.28 110.79
  L 126.97 110.16
  A 1.49 1.47 51.8 0 1 127.84 110.27
  Q 129.73 111.14 131.28 111.11
  A 0.47 0.46 -16.1 0 0 131.67 110.41
  Q 129.45 106.74 127.29 106.13
  A 2.65 2.61 -9.0 0 1 125.86 105.11
  C 124.65 103.37 122.84 103.40 120.26 103.18
  A 1.06 1.02 -19.5 0 1 119.60 102.88
  L 118.17 101.45
  A 1.29 1.28 -35.2 0 0 116.71 101.20
  L 109.97 104.44"
/>
<path stroke="#57ad4d" vector-effect="non-scaling-stroke" d="
  M 109.97 104.44
  Q 109.42 102.54 109.74 100.65
  A 0.23 0.23 0.0 0 0 109.29 100.55
  L 108.56 103.38
  A 0.23 0.23 0.0 0 1 108.13 103.42
  Q 107.95 103.04 107.91 103.03
  Q 107.61 102.89 107.57 103.00
  Q 107.51 103.15 107.46 103.26
  A 0.36 0.35 29.3 0 1 106.91 103.41
  Q 104.03 101.21 102.02 104.64
  Q 99.09 109.63 97.65 112.91
  A 1.06 1.06 0.0 0 1 96.43 113.51
  Q 90.95 112.16 86.23 109.55
  A 1.08 1.06 11.8 0 1 85.69 108.74
  Q 84.65 99.70 81.59 90.84"
/>
<path stroke="#67701d" vector-effect="non-scaling-stroke" d="
  M 101.22 142.92
  L 98.24 139.61
  A 1.63 1.61 59.8 0 0 96.53 139.15
  Q 92.35 140.49 90.85 143.74"
/>
<path stroke="#e3e58e" vector-effect="non-scaling-stroke" d="
  M 90.85 143.74
  L 83.21 149.86"
/>
<path stroke="#e0d356" vector-effect="non-scaling-stroke" d="
  M 69.75 133.73
  Q 72.45 132.57 71.95 129.48"
/>
<path stroke="#e3e58e" vector-effect="non-scaling-stroke" d="
  M 71.95 129.48
  Q 73.69 128.53 75.83 128.59
  A 0.87 0.87 0.0 0 0 76.49 127.13
  Q 75.31 125.84 72.99 125.63"
/>
<path stroke="#a0d192" vector-effect="non-scaling-stroke" d="
  M 137.13 129.45
  Q 137.20 130.06 136.77 129.96
  Q 131.52 128.77 128.01 127.25
  A 1.54 1.53 -49.3 0 0 126.62 127.36
  Q 124.62 128.59 122.81 130.81
  A 1.14 1.13 -56.8 0 0 123.17 132.54
  Q 124.57 133.27 125.72 132.83
  Q 130.36 131.06 136.78 131.89
  C 138.26 132.09 138.91 133.30 140.81 133.41
  A 0.58 0.58 0.0 0 0 141.34 133.13
  Q 141.79 132.36 141.64 131.99
  A 0.66 0.66 0.0 0 0 140.78 131.63
  Q 138.65 132.49 137.58 130.84
  A 0.53 0.53 0.0 0 1 137.77 130.09
  L 138.02 129.95"
/>
<path stroke="#fdeec7" vector-effect="non-scaling-stroke" d="
  M 71.95 129.48
  L 67.01 130.37
  A 1.28 1.26 55.2 0 1 66.11 130.20
  Q 64.84 129.41 63.31 130.36
  A 2.36 2.23 25.6 0 1 62.25 130.70
  L 55.25 131.24"
/>
<path stroke="#84a3a3" vector-effect="non-scaling-stroke" d="
  M 84.26 62.52
  L 90.82 62.80"
/>
<path stroke="#0853a7" vector-effect="non-scaling-stroke" d="
  M 90.82 62.80
  Q 95.00 63.88 97.99 61.76
  Q 100.01 60.33 103.93 54.46
  C 109.53 46.05 107.48 34.10 98.22 28.99
  C 83.09 20.62 64.99 23.65 54.61 37.71
  C 51.40 42.06 49.69 47.59 50.99 52.56
  C 53.59 62.55 62.62 75.21 74.55 72.21
  C 79.37 71.00 82.83 67.23 84.26 62.52"
/>
<path stroke="#7f8d94" vector-effect="non-scaling-stroke" d="
  M 90.82 62.80
  Q 103.09 59.62 105.68 48.98
  C 107.61 41.06 104.59 32.99 97.71 28.85
  A 0.62 0.62 0.0 0 0 96.81 29.59
  Q 97.08 30.38 97.68 31.79
  C 100.29 37.91 98.55 45.68 93.57 50.25
  Q 84.58 58.51 72.59 52.57
  A 0.64 0.63 -3.1 0 0 71.77 53.48
  Q 76.53 60.83 84.26 62.52"
/>
<path stroke="#a0d192" vector-effect="non-scaling-stroke" d="
  M 116.47 105.46
  Q 117.12 105.08 117.90 105.06
  A 1.13 0.92 -64.3 0 1 118.34 106.91
  Q 117.66 107.62 115.86 107.14
  A 1.13 1.13 0.0 0 0 114.49 107.90
  L 114.47 107.95
  A 0.89 0.88 11.1 0 0 115.24 109.09
  Q 119.26 109.45 121.91 106.46
  A 1.55 1.54 -46.7 0 1 124.16 106.39
  L 126.24 108.47
  A 0.37 0.37 0.0 0 0 126.87 108.28
  C 127.27 106.22 124.75 104.83 122.74 104.85
  Q 120.65 104.87 119.16 103.97
  C 117.74 103.13 116.33 103.07 115.57 104.63
  A 0.64 0.64 0.0 0 0 116.47 105.46"
/>
<path stroke="#e2de13" vector-effect="non-scaling-stroke" d="
  M 103.46 134.10
  A 1.65 1.64 -27.8 0 0 104.17 131.83
  C 97.88 120.51 81.18 123.08 84.54 138.26
  A 1.60 1.59 -2.6 0 0 85.90 139.50
  Q 89.02 139.87 91.75 138.93
  Q 98.18 136.70 103.46 134.10"
/>
<path stroke="#2a6038" vector-effect="non-scaling-stroke" d="
  M 95.47 141.62
  Q 95.42 141.38 95.31 141.32
  A 0.13 0.13 0.0 0 0 95.12 141.46
  Q 95.17 141.70 95.34 141.75
  A 0.11 0.11 0.0 0 0 95.47 141.62"
/>
</g>
<path fill="#ffffff" d="
  M 180.00 0.00
  L 180.00 180.00
  L 0.00 180.00
  L 0.00 0.00
  L 180.00 0.00
  Z
  M 82.60 175.81
  Q 90.13 176.62 96.97 176.01
  A 2.69 2.67 7.6 0 0 99.25 174.28
  Q 101.40 168.60 98.66 165.80
  C 95.88 162.95 89.28 162.55 88.01 158.53
  A 1.02 1.00 -34.7 0 1 88.19 157.58
  C 90.43 154.85 93.14 153.93 97.87 151.51
  Q 99.43 150.71 99.16 148.77
  A 1.31 1.27 15.1 0 0 98.64 147.90
  C 96.75 146.52 94.36 145.18 93.94 143.93
  Q 93.59 142.86 94.40 142.09
  A 0.21 0.21 0.0 0 1 94.75 142.29
  C 93.98 145.26 99.06 146.41 100.34 147.53
  Q 103.03 149.91 100.31 152.06
  Q 97.59 154.21 93.93 155.86
  Q 92.72 156.41 92.14 157.47
  A 1.92 1.92 0.0 0 0 92.87 160.06
  C 97.11 162.49 106.28 162.12 105.50 170.08
  A 2.56 2.55 -77.6 0 0 107.20 172.75
  C 114.57 175.30 128.99 167.34 135.32 163.18
  Q 145.65 157.10 154.42 147.15
  C 197.30 98.53 173.66 21.82 110.51 5.77
  Q 104.26 4.18 97.78 3.92
  Q 94.21 3.22 90.50 3.24
  Q 69.60 3.37 51.90 12.07
  C 26.69 24.45 8.83 48.30 4.47 76.16
  C -2.92 123.48 28.30 166.37 74.93 175.12
  Q 79.25 175.93 82.60 175.81
  Z"
/>
<path fill="#0d69b6" d="
  M 97.78 3.92
  L 104.65 5.72
  A 1.19 1.08 -21.3 0 1 104.86 5.80
  Q 112.92 9.63 115.90 11.97
  C 130.31 23.29 136.42 40.83 131.46 58.42
  Q 128.91 67.46 123.48 74.00
  Q 114.12 85.25 100.14 88.80
  C 94.92 90.12 87.75 90.02 81.59 90.84
  Q 77.98 91.38 76.12 92.10
  Q 52.08 101.41 47.21 126.71
  Q 46.52 130.26 46.91 135.53
  Q 48.20 152.94 60.60 164.63
  Q 60.91 164.92 61.86 165.24
  C 62.67 167.38 68.64 170.37 70.74 171.24
  Q 76.47 173.65 82.60 175.81
  Q 79.25 175.93 74.93 175.12
  C 28.30 166.37 -2.92 123.48 4.47 76.16
  C 8.83 48.30 26.69 24.45 51.90 12.07
  Q 69.60 3.37 90.50 3.24
  Q 94.21 3.22 97.78 3.92
  Z
  M 84.26 62.52
  L 90.82 62.80
  Q 95.00 63.88 97.99 61.76
  Q 100.01 60.33 103.93 54.46
  C 109.53 46.05 107.48 34.10 98.22 28.99
  C 83.09 20.62 64.99 23.65 54.61 37.71
  C 51.40 42.06 49.69 47.59 50.99 52.56
  C 53.59 62.55 62.62 75.21 74.55 72.21
  C 79.37 71.00 82.83 67.23 84.26 62.52
  Z"
/>
<path fill="#4ca952" d="
  M 135.32 163.18
  L 126.12 161.94
  Q 124.94 159.25 122.50 157.52
  L 121.51 156.84
  L 118.70 153.51
  A 6.61 6.59 79.6 0 0 115.81 151.51
  L 106.03 148.08
  L 101.22 142.92
  C 103.54 140.36 108.82 135.50 108.91 132.26
  Q 109.05 127.05 110.76 122.09
  Q 109.81 127.56 110.04 132.98
  Q 110.08 133.88 109.00 135.86
  A 0.28 0.27 12.9 0 0 109.26 136.27
  L 119.47 135.70
  L 126.23 135.11
  A 1.79 1.77 54.8 0 1 127.13 135.27
  Q 130.20 136.69 132.07 136.34
  Q 137.46 135.33 143.31 136.82
  C 144.48 137.12 145.09 136.57 145.91 135.93
  A 0.79 0.79 0.0 0 1 146.66 135.80
  C 151.12 137.27 153.26 136.44 157.35 135.09
  A 0.80 0.80 0.0 0 0 157.74 133.85
  Q 154.98 130.16 152.12 130.52
  A 1.11 1.08 -25.3 0 1 151.22 130.21
  L 150.46 129.45
  A 0.70 0.69 57.0 0 0 149.72 129.29
  L 146.56 130.49
  A 0.24 0.24 0.0 0 1 146.27 130.15
  Q 147.18 128.50 146.98 127.49
  A 1.13 1.13 0.0 0 0 145.12 126.88
  Q 142.19 129.51 138.02 129.95
  Q 137.65 129.61 137.13 129.45
  C 135.30 127.64 132.55 127.49 131.20 127.14
  A 2.72 2.69 -15.4 0 1 129.97 126.45
  L 128.43 124.96
  A 1.19 1.19 0.0 0 0 127.19 124.70
  L 121.54 126.84
  A 1.61 1.60 87.2 0 0 120.55 127.94
  L 119.66 131.38
  A 0.73 0.73 0.0 0 1 118.32 131.56
  Q 117.04 129.30 114.55 130.46
  C 108.52 125.82 116.72 121.52 119.37 118.65
  Q 121.64 116.20 121.13 112.92
  A 0.68 0.67 74.7 0 1 121.54 112.19
  Q 122.71 111.70 123.28 110.79
  L 126.97 110.16
  A 1.49 1.47 51.8 0 1 127.84 110.27
  Q 129.73 111.14 131.28 111.11
  A 0.47 0.46 -16.1 0 0 131.67 110.41
  Q 129.45 106.74 127.29 106.13
  A 2.65 2.61 -9.0 0 1 125.86 105.11
  C 124.65 103.37 122.84 103.40 120.26 103.18
  A 1.06 1.02 -19.5 0 1 119.60 102.88
  L 118.17 101.45
  A 1.29 1.28 -35.2 0 0 116.71 101.20
  L 109.97 104.44
  Q 109.42 102.54 109.74 100.65
  A 0.23 0.23 0.0 0 0 109.29 100.55
  L 108.56 103.38
  A 0.23 0.23 0.0 0 1 108.13 103.42
  Q 107.95 103.04 107.91 103.03
  Q 107.61 102.89 107.57 103.00
  Q 107.51 103.15 107.46 103.26
  A 0.36 0.35 29.3 0 1 106.91 103.41
  Q 104.03 101.21 102.02 104.64
  Q 99.09 109.63 97.65 112.91
  A 1.06 1.06 0.0 0 1 96.43 113.51
  Q 90.95 112.16 86.23 109.55
  A 1.08 1.06 11.8 0 1 85.69 108.74
  Q 84.65 99.70 81.59 90.84
  C 87.75 90.02 94.92 90.12 100.14 88.80
  Q 114.12 85.25 123.48 74.00
  Q 128.91 67.46 131.46 58.42
  C 136.42 40.83 130.31 23.29 115.90 11.97
  Q 112.92 9.63 104.86 5.80
  A 1.19 1.08 -21.3 0 0 104.65 5.72
  L 97.78 3.92
  Q 104.26 4.18 110.51 5.77
  C 173.66 21.82 197.30 98.53 154.42 147.15
  Q 145.65 157.10 135.32 163.18
  Z"
/>
<path fill="#033d98" d="
  M 90.82 62.80
  Q 103.09 59.62 105.68 48.98
  C 107.61 41.06 104.59 32.99 97.71 28.85
  A 0.62 0.62 0.0 0 0 96.81 29.59
  Q 97.08 30.38 97.68 31.79
  C 100.29 37.91 98.55 45.68 93.57 50.25
  Q 84.58 58.51 72.59 52.57
  A 0.64 0.63 -3.1 0 0 71.77 53.48
  Q 76.53 60.83 84.26 62.52
  C 82.83 67.23 79.37 71.00 74.55 72.21
  C 62.62 75.21 53.59 62.55 50.99 52.56
  C 49.69 47.59 51.40 42.06 54.61 37.71
  C 64.99 23.65 83.09 20.62 98.22 28.99
  C 107.48 34.10 109.53 46.05 103.93 54.46
  Q 100.01 60.33 97.99 61.76
  Q 95.00 63.88 90.82 62.80
  Z"
/>
<path fill="#fadc8f" d="
  M 90.82 62.80
  L 84.26 62.52
  Q 76.53 60.83 71.77 53.48
  A 0.64 0.63 -3.1 0 1 72.59 52.57
  Q 84.58 58.51 93.57 50.25
  C 98.55 45.68 100.29 37.91 97.68 31.79
  Q 97.08 30.38 96.81 29.59
  A 0.62 0.62 0.0 0 1 97.71 28.85
  C 104.59 32.99 107.61 41.06 105.68 48.98
  Q 103.09 59.62 90.82 62.80
  Z"
/>
<path fill="#62b147" d="
  M 81.59 90.84
  Q 84.65 99.70 85.69 108.74
  A 1.08 1.06 11.8 0 0 86.23 109.55
  Q 90.95 112.16 96.43 113.51
  A 1.06 1.06 0.0 0 0 97.65 112.91
  Q 99.09 109.63 102.02 104.64
  Q 104.03 101.21 106.91 103.41
  A 0.36 0.35 29.3 0 0 107.46 103.26
  Q 107.51 103.15 107.57 103.00
  Q 107.61 102.89 107.91 103.03
  Q 107.95 103.04 108.13 103.42
  A 0.23 0.23 0.0 0 0 108.56 103.38
  L 109.29 100.55
  A 0.23 0.23 0.0 0 1 109.74 100.65
  Q 109.42 102.54 109.97 104.44
  L 108.83 106.81
  A 0.55 0.55 0.0 0 1 107.95 106.96
  L 106.21 105.22
  A 0.50 0.50 0.0 0 0 105.45 105.28
  Q 103.80 107.57 103.41 110.40
  Q 103.28 111.36 102.69 112.03
  A 0.47 0.47 0.0 0 0 103.13 112.80
  L 104.78 112.46
  A 1.84 1.83 -40.6 0 1 105.72 112.53
  Q 107.96 113.35 108.87 113.10
  Q 115.98 111.19 123.28 110.79
  Q 122.71 111.70 121.54 112.19
  A 0.68 0.67 74.7 0 0 121.13 112.92
  Q 121.64 116.20 119.37 118.65
  C 116.72 121.52 108.52 125.82 114.55 130.46
  Q 113.70 132.38 114.14 134.29
  A 1.77 1.77 0.0 0 0 115.84 135.65
  L 119.47 135.70
  L 109.26 136.27
  A 0.28 0.27 12.9 0 1 109.00 135.86
  Q 110.08 133.88 110.04 132.98
  Q 109.81 127.56 110.76 122.09
  C 105.66 120.89 103.58 117.82 100.98 113.71
  A 0.56 0.56 0.0 0 0 100.18 113.56
  Q 95.38 117.05 89.25 119.08
  C 85.81 120.23 82.75 122.67 80.23 124.66
  A 2.15 2.14 22.8 0 1 79.09 125.12
  L 72.99 125.63
  C 71.11 124.60 70.49 122.38 68.15 122.75
  Q 66.05 123.08 66.01 121.96
  A 1.20 1.10 -6.3 0 0 64.61 120.94
  Q 60.71 121.60 57.61 123.58
  A 0.93 0.91 80.9 0 0 57.24 124.10
  L 56.49 126.99
  A 0.57 0.57 0.0 0 1 55.89 127.42
  C 55.27 127.37 54.75 127.04 54.13 127.24
  Q 52.67 127.71 51.85 128.63
  A 0.83 0.82 32.3 0 0 52.15 129.94
  L 55.25 131.24
  Q 59.05 131.73 62.31 133.39
  A 2.11 2.08 58.8 0 0 63.22 133.62
  L 69.75 133.73
  Q 73.35 136.50 75.96 140.30
  Q 78.37 143.81 79.48 145.16
  Q 81.32 147.38 83.21 149.86
  L 77.98 153.16
  Q 77.57 151.37 76.01 151.37
  A 0.94 0.92 15.6 0 0 75.22 151.80
  C 71.70 157.44 67.55 161.07 61.86 165.24
  Q 60.91 164.92 60.60 164.63
  Q 48.20 152.94 46.91 135.53
  Q 46.52 130.26 47.21 126.71
  Q 52.08 101.41 76.12 92.10
  Q 77.98 91.38 81.59 90.84
  Z"
/>
<path fill="#ddf1dc" d="
  M 123.28 110.79
  Q 115.98 111.19 108.87 113.10
  Q 107.96 113.35 105.72 112.53
  A 1.84 1.83 -40.6 0 0 104.78 112.46
  L 103.13 112.80
  A 0.47 0.47 0.0 0 1 102.69 112.03
  Q 103.28 111.36 103.41 110.40
  Q 103.80 107.57 105.45 105.28
  A 0.50 0.50 0.0 0 1 106.21 105.22
  L 107.95 106.96
  A 0.55 0.55 0.0 0 0 108.83 106.81
  L 109.97 104.44
  L 116.71 101.20
  A 1.29 1.28 -35.2 0 1 118.17 101.45
  L 119.60 102.88
  A 1.06 1.02 -19.5 0 0 120.26 103.18
  C 122.84 103.40 124.65 103.37 125.86 105.11
  A 2.65 2.61 -9.0 0 0 127.29 106.13
  Q 129.45 106.74 131.67 110.41
  A 0.47 0.46 -16.1 0 1 131.28 111.11
  Q 129.73 111.14 127.84 110.27
  A 1.49 1.47 51.8 0 0 126.97 110.16
  L 123.28 110.79
  Z
  M 116.47 105.46
  Q 117.12 105.08 117.90 105.06
  A 1.13 0.92 -64.3 0 1 118.34 106.91
  Q 117.66 107.62 115.86 107.14
  A 1.13 1.13 0.0 0 0 114.49 107.90
  L 114.47 107.95
  A 0.89 0.88 11.1 0 0 115.24 109.09
  Q 119.26 109.45 121.91 106.46
  A 1.55 1.54 -46.7 0 1 124.16 106.39
  L 126.24 108.47
  A 0.37 0.37 0.0 0 0 126.87 108.28
  C 127.27 106.22 124.75 104.83 122.74 104.85
  Q 120.65 104.87 119.16 103.97
  C 117.74 103.13 116.33 103.07 115.57 104.63
  A 0.64 0.64 0.0 0 0 116.47 105.46
  Z"
/>
<path fill="#62b147" d="
  M 116.47 105.46
  A 0.64 0.64 0.0 0 1 115.57 104.63
  C 116.33 103.07 117.74 103.13 119.16 103.97
  Q 120.65 104.87 122.74 104.85
  C 124.75 104.83 127.27 106.22 126.87 108.28
  A 0.37 0.37 0.0 0 1 126.24 108.47
  L 124.16 106.39
  A 1.55 1.54 -46.7 0 0 121.91 106.46
  Q 119.26 109.45 115.24 109.09
  A 0.89 0.88 11.1 0 1 114.47 107.95
  L 114.49 107.90
  A 1.13 1.13 0.0 0 1 115.86 107.14
  Q 117.66 107.62 118.34 106.91
  A 1.13 0.92 -64.3 0 0 117.90 105.06
  Q 117.12 105.08 116.47 105.46
  Z"
/>
<path fill="#c6ca1c" d="
  M 110.76 122.09
  Q 109.05 127.05 108.91 132.26
  C 108.82 135.50 103.54 140.36 101.22 142.92
  L 98.24 139.61
  A 1.63 1.61 59.8 0 0 96.53 139.15
  Q 92.35 140.49 90.85 143.74
  L 83.21 149.86
  Q 81.32 147.38 79.48 145.16
  Q 78.37 143.81 75.96 140.30
  Q 73.35 136.50 69.75 133.73
  Q 72.45 132.57 71.95 129.48
  Q 73.69 128.53 75.83 128.59
  A 0.87 0.87 0.0 0 0 76.49 127.13
  Q 75.31 125.84 72.99 125.63
  L 79.09 125.12
  A 2.15 2.14 22.8 0 0 80.23 124.66
  C 82.75 122.67 85.81 120.23 89.25 119.08
  Q 95.38 117.05 100.18 113.56
  A 0.56 0.56 0.0 0 1 100.98 113.71
  C 103.58 117.82 105.66 120.89 110.76 122.09
  Z
  M 103.46 134.10
  A 1.65 1.64 -27.8 0 0 104.17 131.83
  C 97.88 120.51 81.18 123.08 84.54 138.26
  A 1.60 1.59 -2.6 0 0 85.90 139.50
  Q 89.02 139.87 91.75 138.93
  Q 98.18 136.70 103.46 134.10
  Z"
/>
<path fill="#ffffff" d="
  M 72.99 125.63
  Q 75.31 125.84 76.49 127.13
  A 0.87 0.87 0.0 0 1 75.83 128.59
  Q 73.69 128.53 71.95 129.48
  L 67.01 130.37
  A 1.28 1.26 55.2 0 1 66.11 130.20
  Q 64.84 129.41 63.31 130.36
  A 2.36 2.23 25.6 0 1 62.25 130.70
  L 55.25 131.24
  L 52.15 129.94
  A 0.83 0.82 32.3 0 1 51.85 128.63
  Q 52.67 127.71 54.13 127.24
  C 54.75 127.04 55.27 127.37 55.89 127.42
  A 0.57 0.57 0.0 0 0 56.49 126.99
  L 57.24 124.10
  A 0.93 0.91 80.9 0 1 57.61 123.58
  Q 60.71 121.60 64.61 120.94
  A 1.20 1.10 -6.3 0 1 66.01 121.96
  Q 66.05 123.08 68.15 122.75
  C 70.49 122.38 71.11 124.60 72.99 125.63
  Z"
/>
<path fill="#fef20a" d="
  M 103.46 134.10
  Q 98.18 136.70 91.75 138.93
  Q 89.02 139.87 85.90 139.50
  A 1.60 1.59 -2.6 0 1 84.54 138.26
  C 81.18 123.08 97.88 120.51 104.17 131.83
  A 1.65 1.64 -27.8 0 1 103.46 134.10
  Z"
/>
<path fill="#ddf1dc" d="
  M 137.13 129.45
  Q 137.20 130.06 136.77 129.96
  Q 131.52 128.77 128.01 127.25
  A 1.54 1.53 -49.3 0 0 126.62 127.36
  Q 124.62 128.59 122.81 130.81
  A 1.14 1.13 -56.8 0 0 123.17 132.54
  Q 124.57 133.27 125.72 132.83
  Q 130.36 131.06 136.78 131.89
  C 138.26 132.09 138.91 133.30 140.81 133.41
  A 0.58 0.58 0.0 0 0 141.34 133.13
  Q 141.79 132.36 141.64 131.99
  A 0.66 0.66 0.0 0 0 140.78 131.63
  Q 138.65 132.49 137.58 130.84
  A 0.53 0.53 0.0 0 1 137.77 130.09
  L 138.02 129.95
  Q 142.19 129.51 145.12 126.88
  A 1.13 1.13 0.0 0 1 146.98 127.49
  Q 147.18 128.50 146.27 130.15
  A 0.24 0.24 0.0 0 0 146.56 130.49
  L 149.72 129.29
  A 0.70 0.69 57.0 0 1 150.46 129.45
  L 151.22 130.21
  A 1.11 1.08 -25.3 0 0 152.12 130.52
  Q 154.98 130.16 157.74 133.85
  A 0.80 0.80 0.0 0 1 157.35 135.09
  C 153.26 136.44 151.12 137.27 146.66 135.80
  A 0.79 0.79 0.0 0 0 145.91 135.93
  C 145.09 136.57 144.48 137.12 143.31 136.82
  Q 137.46 135.33 132.07 136.34
  Q 130.20 136.69 127.13 135.27
  A 1.79 1.77 54.8 0 0 126.23 135.11
  L 119.47 135.70
  L 115.84 135.65
  A 1.77 1.77 0.0 0 1 114.14 134.29
  Q 113.70 132.38 114.55 130.46
  Q 117.04 129.30 118.32 131.56
  A 0.73 0.73 0.0 0 0 119.66 131.38
  L 120.55 127.94
  A 1.61 1.60 87.2 0 1 121.54 126.84
  L 127.19 124.70
  A 1.19 1.19 0.0 0 1 128.43 124.96
  L 129.97 126.45
  A 2.72 2.69 -15.4 0 0 131.20 127.14
  C 132.55 127.49 135.30 127.64 137.13 129.45
  Z"
/>
<path fill="#62b147" d="
  M 137.13 129.45
  Q 137.65 129.61 138.02 129.95
  L 137.77 130.09
  A 0.53 0.53 0.0 0 0 137.58 130.84
  Q 138.65 132.49 140.78 131.63
  A 0.66 0.66 0.0 0 1 141.64 131.99
  Q 141.79 132.36 141.34 133.13
  A 0.58 0.58 0.0 0 1 140.81 133.41
  C 138.91 133.30 138.26 132.09 136.78 131.89
  Q 130.36 131.06 125.72 132.83
  Q 124.57 133.27 123.17 132.54
  A 1.14 1.13 -56.8 0 1 122.81 130.81
  Q 124.62 128.59 126.62 127.36
  A 1.54 1.53 -49.3 0 1 128.01 127.25
  Q 131.52 128.77 136.77 129.96
  Q 137.20 130.06 137.13 129.45
  Z"
/>
<path fill="#fadc8f" d="
  M 71.95 129.48
  Q 72.45 132.57 69.75 133.73
  L 63.22 133.62
  A 2.11 2.08 58.8 0 1 62.31 133.39
  Q 59.05 131.73 55.25 131.24
  L 62.25 130.70
  A 2.36 2.23 25.6 0 0 63.31 130.36
  Q 64.84 129.41 66.11 130.20
  A 1.28 1.26 55.2 0 0 67.01 130.37
  L 71.95 129.48
  Z"
/>
<path fill="#07161d" d="
  M 101.22 142.92
  L 106.03 148.08
  L 107.04 150.73
  A 0.53 0.53 0.0 0 0 107.72 151.03
  C 110.28 150.08 112.89 151.83 115.76 152.80
  A 3.29 3.24 -11.4 0 1 117.11 153.68
  C 118.31 154.99 119.40 157.58 121.51 156.84
  L 122.50 157.52
  Q 123.67 159.81 124.53 162.00
  Q 124.82 162.72 125.27 162.62
  Q 125.67 162.52 126.12 161.94
  L 135.32 163.18
  C 128.99 167.34 114.57 175.30 107.20 172.75
  A 2.56 2.55 -77.6 0 1 105.50 170.08
  C 106.28 162.12 97.11 162.49 92.87 160.06
  A 1.92 1.92 0.0 0 1 92.14 157.47
  Q 92.72 156.41 93.93 155.86
  Q 97.59 154.21 100.31 152.06
  Q 103.03 149.91 100.34 147.53
  C 99.06 146.41 93.98 145.26 94.75 142.29
  A 0.21 0.21 0.0 0 0 94.40 142.09
  Q 93.59 142.86 93.94 143.93
  C 94.36 145.18 96.75 146.52 98.64 147.90
  A 1.31 1.27 15.1 0 1 99.16 148.77
  Q 99.43 150.71 97.87 151.51
  C 93.14 153.93 90.43 154.85 88.19 157.58
  A 1.02 1.00 -34.7 0 0 88.01 158.53
  C 89.28 162.55 95.88 162.95 98.66 165.80
  Q 101.40 168.60 99.25 174.28
  A 2.69 2.67 7.6 0 1 96.97 176.01
  Q 90.13 176.62 82.60 175.81
  Q 76.47 173.65 70.74 171.24
  C 68.64 170.37 62.67 167.38 61.86 165.24
  C 67.55 161.07 71.70 157.44 75.22 151.80
  A 0.94 0.92 15.6 0 1 76.01 151.37
  Q 77.57 151.37 77.98 153.16
  Q 78.92 154.46 81.11 154.42
  A 1.48 1.47 25.0 0 0 82.00 154.10
  Q 87.48 149.61 90.85 143.74
  Q 92.35 140.49 96.53 139.15
  A 1.63 1.61 59.8 0 1 98.24 139.61
  L 101.22 142.92
  Z
  M 95.47 141.62
  Q 95.42 141.38 95.31 141.32
  A 0.13 0.13 0.0 0 0 95.12 141.46
  Q 95.17 141.70 95.34 141.75
  A 0.11 0.11 0.0 0 0 95.47 141.62
  Z"
/>
<path fill="#4ca952" d="
  M 95.34 141.75
  Q 95.17 141.70 95.12 141.46
  A 0.13 0.13 0.0 0 1 95.31 141.32
  Q 95.42 141.38 95.47 141.62
  A 0.11 0.11 0.0 0 1 95.34 141.75
  Z"
/>
<path fill="#ffffff" d="
  M 90.85 143.74
  Q 87.48 149.61 82.00 154.10
  A 1.48 1.47 25.0 0 1 81.11 154.42
  Q 78.92 154.46 77.98 153.16
  L 83.21 149.86
  L 90.85 143.74
  Z"
/>
<path fill="#ffffff" d="
  M 121.51 156.84
  C 119.40 157.58 118.31 154.99 117.11 153.68
  A 3.29 3.24 -11.4 0 0 115.76 152.80
  C 112.89 151.83 110.28 150.08 107.72 151.03
  A 0.53 0.53 0.0 0 1 107.04 150.73
  L 106.03 148.08
  L 115.81 151.51
  A 6.61 6.59 79.6 0 1 118.70 153.51
  L 121.51 156.84
  Z"
/>
<path fill="#ffffff" d="
  M 126.12 161.94
  Q 125.67 162.52 125.27 162.62
  Q 124.82 162.72 124.53 162.00
  Q 123.67 159.81 122.50 157.52
  Q 124.94 159.25 126.12 161.94
  Z"
/>
</svg>
